<mxfile host="65bd71144e">
    <diagram name="Page-1" id="1VTvxivwpSPhkvNJXZJ3">
        <mxGraphModel dx="1086" dy="751" grid="1" gridSize="10" guides="1" tooltips="1" connect="1" arrows="1" fold="1" page="1" pageScale="1" pageWidth="850" pageHeight="1100" background="#ffffff" math="0" shadow="0">
            <root>
                <mxCell id="sueAwKAaTNoMhfTQWeYg-0"/>
                <mxCell id="sueAwKAaTNoMhfTQWeYg-1" parent="sueAwKAaTNoMhfTQWeYg-0"/>
                <mxCell id="sueAwKAaTNoMhfTQWeYg-2" value="http://ics2o.mths.ca" style="swimlane;whiteSpace=wrap;html=1;strokeColor=#000000;strokeWidth=1;gradientColor=none;perimeterSpacing=0;glass=0;labelBackgroundColor=none;labelBorderColor=none;" parent="sueAwKAaTNoMhfTQWeYg-1" vertex="1">
                    <mxGeometry x="40" y="40" width="760" height="610" as="geometry"/>
                </mxCell>
                <mxCell id="sueAwKAaTNoMhfTQWeYg-3" value="" style="whiteSpace=wrap;html=1;glass=0;labelBackgroundColor=none;labelBorderColor=none;fontSize=22;fillColor=#ffcc99;strokeColor=#36393d;" parent="sueAwKAaTNoMhfTQWeYg-2" vertex="1">
                    <mxGeometry y="20" width="760" height="590" as="geometry"/>
                </mxCell>
                <mxCell id="sueAwKAaTNoMhfTQWeYg-4" value="" style="whiteSpace=wrap;html=1;fontSize=22;fillColor=#ffcd28;strokeColor=#d79b00;gradientColor=none;" parent="sueAwKAaTNoMhfTQWeYg-2" vertex="1">
                    <mxGeometry y="20" width="760" height="50" as="geometry"/>
                </mxCell>
                <mxCell id="sueAwKAaTNoMhfTQWeYg-6" value="" style="whiteSpace=wrap;html=1;glass=0;labelBackgroundColor=none;labelBorderColor=none;fontSize=22;fontColor=#000000;fillColor=#6D6F6B;gradientColor=none;" parent="sueAwKAaTNoMhfTQWeYg-2" vertex="1">
                    <mxGeometry x="20" y="142.5" width="150" height="25" as="geometry"/>
                </mxCell>
                <mxCell id="sueAwKAaTNoMhfTQWeYg-8" value="&lt;span style=&quot;font-size: 24px;&quot;&gt;Enter two whole numbers to multiply them using&lt;br&gt;only addition and loops.&lt;br&gt;&lt;/span&gt;" style="text;html=1;align=center;verticalAlign=middle;resizable=0;points=[];autosize=1;fontSize=26;fontColor=#000000;" parent="sueAwKAaTNoMhfTQWeYg-2" vertex="1">
                    <mxGeometry x="100" y="62.5" width="530" height="80" as="geometry"/>
                </mxCell>
                <mxCell id="sueAwKAaTNoMhfTQWeYg-9" value="&lt;span style=&quot;font-size: 17px;&quot;&gt;First Number&lt;/span&gt;" style="text;align=center;html=1;verticalAlign=middle;whiteSpace=wrap;rounded=0;fontColor=#000000;" parent="sueAwKAaTNoMhfTQWeYg-2" vertex="1">
                    <mxGeometry x="20" y="112.5" width="110" height="30" as="geometry"/>
                </mxCell>
                <mxCell id="sueAwKAaTNoMhfTQWeYg-13" value="Calculate" style="whiteSpace=wrap;html=1;fillColor=#999999;" parent="sueAwKAaTNoMhfTQWeYg-2" vertex="1">
                    <mxGeometry x="30" y="244" width="120" height="30" as="geometry"/>
                </mxCell>
                <mxCell id="sueAwKAaTNoMhfTQWeYg-14" value="The answer is: ..." style="text;strokeColor=none;align=left;fillColor=none;html=1;verticalAlign=middle;whiteSpace=wrap;rounded=0;fontSize=18;fontColor=#000000;" parent="sueAwKAaTNoMhfTQWeYg-2" vertex="1">
                    <mxGeometry x="10" y="287" width="530" height="30" as="geometry"/>
                </mxCell>
                <mxCell id="sueAwKAaTNoMhfTQWeYg-15" value="Addition-Only Multiplicator" style="text;html=1;align=center;verticalAlign=middle;resizable=0;points=[];autosize=1;fontSize=30;fontColor=#000000;" parent="sueAwKAaTNoMhfTQWeYg-2" vertex="1">
                    <mxGeometry x="200" y="20" width="370" height="50" as="geometry"/>
                </mxCell>
                <mxCell id="iGiyrYhKWCO6xkSs6Czd-1" value="" style="whiteSpace=wrap;html=1;glass=0;labelBackgroundColor=none;labelBorderColor=none;fontSize=22;fontColor=#000000;fillColor=#6D6F6B;gradientColor=none;" parent="sueAwKAaTNoMhfTQWeYg-1" vertex="1">
                    <mxGeometry x="60" y="236.5" width="150" height="25" as="geometry"/>
                </mxCell>
                <mxCell id="iGiyrYhKWCO6xkSs6Czd-2" value="&lt;font style=&quot;font-size: 17px;&quot;&gt;Second Number&lt;/font&gt;" style="text;align=center;html=1;verticalAlign=middle;whiteSpace=wrap;rounded=0;fontColor=#000000;" parent="sueAwKAaTNoMhfTQWeYg-1" vertex="1">
                    <mxGeometry x="51" y="206.5" width="150" height="30" as="geometry"/>
                </mxCell>
            </root>
        </mxGraphModel>
    </diagram>
    <diagram name="Page-2" id="AJiS6zVJIiCxeT1u3Gct">
        <mxGraphModel dx="1086" dy="751" grid="1" gridSize="10" guides="1" tooltips="1" connect="1" arrows="1" fold="1" page="1" pageScale="1" pageWidth="850" pageHeight="1100" background="#ffffff" math="0" shadow="0">
            <root>
                <mxCell id="HrvmK0Co-zOwTm6LfEEN-0"/>
                <mxCell id="HrvmK0Co-zOwTm6LfEEN-1" parent="HrvmK0Co-zOwTm6LfEEN-0"/>
                <mxCell id="HrvmK0Co-zOwTm6LfEEN-2" value="http://ics2o.mths.ca" style="swimlane;whiteSpace=wrap;html=1;strokeColor=#000000;strokeWidth=1;gradientColor=none;perimeterSpacing=0;glass=0;labelBackgroundColor=none;labelBorderColor=none;" vertex="1" parent="HrvmK0Co-zOwTm6LfEEN-1">
                    <mxGeometry x="40" y="40" width="760" height="610" as="geometry"/>
                </mxCell>
                <mxCell id="HrvmK0Co-zOwTm6LfEEN-3" value="" style="whiteSpace=wrap;html=1;glass=0;labelBackgroundColor=none;labelBorderColor=none;fontSize=22;fillColor=#ffcc99;strokeColor=#36393d;" vertex="1" parent="HrvmK0Co-zOwTm6LfEEN-2">
                    <mxGeometry y="20" width="760" height="590" as="geometry"/>
                </mxCell>
                <mxCell id="HrvmK0Co-zOwTm6LfEEN-4" value="" style="whiteSpace=wrap;html=1;fontSize=22;fillColor=#ffcd28;strokeColor=#d79b00;gradientColor=none;" vertex="1" parent="HrvmK0Co-zOwTm6LfEEN-2">
                    <mxGeometry y="20" width="760" height="50" as="geometry"/>
                </mxCell>
                <mxCell id="HrvmK0Co-zOwTm6LfEEN-5" value="4" style="whiteSpace=wrap;html=1;glass=0;labelBackgroundColor=none;labelBorderColor=none;fontSize=22;fontColor=#000000;fillColor=#6D6F6B;gradientColor=none;" vertex="1" parent="HrvmK0Co-zOwTm6LfEEN-2">
                    <mxGeometry x="20" y="142.5" width="150" height="25" as="geometry"/>
                </mxCell>
                <mxCell id="HrvmK0Co-zOwTm6LfEEN-6" value="&lt;span style=&quot;font-size: 24px;&quot;&gt;Enter two whole numbers to multiply them using&lt;br&gt;only addition and loops.&lt;br&gt;&lt;/span&gt;" style="text;html=1;align=center;verticalAlign=middle;resizable=0;points=[];autosize=1;fontSize=26;fontColor=#000000;" vertex="1" parent="HrvmK0Co-zOwTm6LfEEN-2">
                    <mxGeometry x="100" y="62.5" width="530" height="80" as="geometry"/>
                </mxCell>
                <mxCell id="HrvmK0Co-zOwTm6LfEEN-7" value="&lt;span style=&quot;font-size: 17px;&quot;&gt;First Number&lt;/span&gt;" style="text;align=center;html=1;verticalAlign=middle;whiteSpace=wrap;rounded=0;fontColor=#000000;" vertex="1" parent="HrvmK0Co-zOwTm6LfEEN-2">
                    <mxGeometry x="20" y="112.5" width="110" height="30" as="geometry"/>
                </mxCell>
                <mxCell id="HrvmK0Co-zOwTm6LfEEN-8" value="Calculate" style="whiteSpace=wrap;html=1;fillColor=#999999;" vertex="1" parent="HrvmK0Co-zOwTm6LfEEN-2">
                    <mxGeometry x="30" y="244" width="120" height="30" as="geometry"/>
                </mxCell>
                <mxCell id="HrvmK0Co-zOwTm6LfEEN-9" value="The answer is: 20" style="text;strokeColor=none;align=left;fillColor=none;html=1;verticalAlign=middle;whiteSpace=wrap;rounded=0;fontSize=18;fontColor=#000000;" vertex="1" parent="HrvmK0Co-zOwTm6LfEEN-2">
                    <mxGeometry x="10" y="287" width="530" height="30" as="geometry"/>
                </mxCell>
                <mxCell id="HrvmK0Co-zOwTm6LfEEN-10" value="Addition-Only Multiplicator" style="text;html=1;align=center;verticalAlign=middle;resizable=0;points=[];autosize=1;fontSize=30;fontColor=#000000;" vertex="1" parent="HrvmK0Co-zOwTm6LfEEN-2">
                    <mxGeometry x="200" y="20" width="370" height="50" as="geometry"/>
                </mxCell>
                <mxCell id="HrvmK0Co-zOwTm6LfEEN-11" value="5" style="whiteSpace=wrap;html=1;glass=0;labelBackgroundColor=none;labelBorderColor=none;fontSize=22;fontColor=#000000;fillColor=#6D6F6B;gradientColor=none;" vertex="1" parent="HrvmK0Co-zOwTm6LfEEN-1">
                    <mxGeometry x="60" y="236.5" width="150" height="25" as="geometry"/>
                </mxCell>
                <mxCell id="HrvmK0Co-zOwTm6LfEEN-12" value="&lt;font style=&quot;font-size: 17px;&quot;&gt;Second Number&lt;/font&gt;" style="text;align=center;html=1;verticalAlign=middle;whiteSpace=wrap;rounded=0;fontColor=#000000;" vertex="1" parent="HrvmK0Co-zOwTm6LfEEN-1">
                    <mxGeometry x="51" y="206.5" width="150" height="30" as="geometry"/>
                </mxCell>
            </root>
        </mxGraphModel>
    </diagram>
</mxfile>